<?xml version="1.0" encoding="UTF-8"?>
<svg xmlns="http://www.w3.org/2000/svg" width="151" height="35" viewBox="0 0 151 35" fill="none">
  <path d="M2.982 16.5984C2.982 15.6184 3.094 14.6594 3.318 13.7214C3.556 12.7694 3.885 11.8734 4.305 11.0334C4.725 10.1794 5.222 9.40236 5.796 8.70235C6.384 7.98835 7.021 7.37235 7.707 6.85435C8.407 6.33635 9.149 5.93736 9.933 5.65736C10.717 5.36335 11.522 5.21635 12.348 5.21635C13.314 5.21635 14.063 5.41935 14.595 5.82535C15.141 6.23136 15.414 6.79836 15.414 7.52636C15.414 7.80635 15.372 8.09335 15.288 8.38736C15.218 8.68135 15.106 8.97535 14.952 9.26936C14.812 9.54935 14.644 9.82235 14.448 10.0884C14.252 10.3544 14.035 10.5854 13.797 10.7814C13.433 10.7254 13.118 10.5644 12.852 10.2984C12.586 10.0184 12.418 9.69635 12.348 9.33235C12.838 8.92635 13.223 8.50635 13.503 8.07235C13.797 7.62436 13.944 7.21836 13.944 6.85435C13.944 6.23835 13.559 5.93035 12.789 5.93035C12.467 5.93035 12.131 6.00035 11.781 6.14036C11.445 6.26635 11.102 6.44835 10.752 6.68635C10.402 6.92435 10.059 7.21135 9.723 7.54735C9.401 7.88335 9.1 8.25435 8.82 8.66036C6.874 11.4604 5.901 14.3234 5.901 17.2494C5.901 18.2854 6.062 19.1184 6.384 19.7484C6.706 20.3784 7.133 20.7494 7.665 20.8614C8.267 20.7214 9.03 20.3364 9.954 19.7064C10.878 19.0764 11.886 18.2574 12.978 17.2494C13.118 17.3894 13.202 17.5364 13.23 17.6904C12.824 18.2224 12.404 18.7334 11.97 19.2234C11.536 19.7134 11.102 20.1614 10.668 20.5674C10.248 20.9734 9.828 21.3304 9.408 21.6384C9.002 21.9464 8.624 22.1844 8.274 22.3524C6.538 22.3244 5.222 21.8274 4.326 20.8614C3.43 19.8954 2.982 18.4744 2.982 16.5984ZM14.5668 20.3574C14.5668 19.8674 14.6158 19.2934 14.7138 18.6354C14.8118 17.9634 14.9518 17.2494 15.1338 16.4934C15.3298 15.7374 15.5538 14.9464 15.8058 14.1204C16.0718 13.2944 16.3658 12.4684 16.6878 11.6424C16.9678 10.9004 17.2898 10.1514 17.6538 9.39535C18.0318 8.63935 18.4378 7.89735 18.8718 7.16935C19.3058 6.44135 19.7538 5.74835 20.2158 5.09036C20.6918 4.43236 21.1678 3.83036 21.6438 3.28435C21.8678 3.28435 22.1058 3.31235 22.3578 3.36835C22.6238 3.42435 22.8758 3.50135 23.1138 3.59935C23.3658 3.68335 23.5898 3.78836 23.7858 3.91436C23.9958 4.04036 24.1638 4.16635 24.2898 4.29235C23.2398 5.37035 22.2948 6.46235 21.4548 7.56835C20.6148 8.66035 19.9498 9.68935 19.4598 10.6554C19.1938 11.1874 18.9488 11.6844 18.7248 12.1464C18.5148 12.6084 18.3188 13.0704 18.1368 13.5324C17.9548 13.9804 17.7868 14.4354 17.6328 14.8974C17.4928 15.3454 17.3598 15.8214 17.2338 16.3254C19.9218 12.8954 21.9168 11.1804 23.2188 11.1804C23.5828 11.1804 23.9748 11.2994 24.3948 11.5374C24.8148 11.7754 25.1858 12.0974 25.5078 12.5034C25.0738 12.9794 24.6258 13.5534 24.1638 14.2254C23.7018 14.8974 23.2748 15.5764 22.8828 16.2624C22.5048 16.9344 22.1898 17.5644 21.9378 18.1524C21.6998 18.7264 21.5808 19.1534 21.5808 19.4334C21.5808 19.5734 21.6018 19.6714 21.6438 19.7274C21.6858 19.7694 21.7768 19.7904 21.9168 19.7904C22.1268 19.7904 22.2948 19.7624 22.4208 19.7064C22.5468 19.6504 22.6238 19.6224 22.6518 19.6224C22.7218 19.7344 22.7638 19.8114 22.7778 19.8534C22.7918 19.8954 22.7988 19.9304 22.7988 19.9584C22.7988 20.0144 22.7148 20.0984 22.5468 20.2104C22.3788 20.3084 22.1758 20.4134 21.9378 20.5254C21.7138 20.6234 21.4898 20.7144 21.2658 20.7984C21.0418 20.8824 20.8738 20.9244 20.7618 20.9244C20.6218 20.9244 20.4818 20.8824 20.3418 20.7984C20.2018 20.7284 20.0758 20.6304 19.9638 20.5044C19.8658 20.3784 19.7818 20.2384 19.7118 20.0844C19.6558 19.9304 19.6278 19.7694 19.6278 19.6014C19.6278 19.3914 19.6838 19.0834 19.7958 18.6774C19.9218 18.2574 20.0898 17.7744 20.2998 17.2284C20.5098 16.6684 20.7618 16.0594 21.0558 15.4014C21.3498 14.7434 21.6648 14.0714 22.0008 13.3854C22.0008 13.3294 21.9728 13.3014 21.9168 13.3014C21.8748 13.3014 21.7628 13.3574 21.5808 13.4694C21.4128 13.5814 21.2518 13.6934 21.0978 13.8054C20.5938 14.1834 20.0828 14.6524 19.5648 15.2124C19.0608 15.7584 18.5638 16.3604 18.0738 17.0184C17.5978 17.6764 17.1428 18.3764 16.7088 19.1184C16.2888 19.8464 15.9248 20.5814 15.6168 21.3234C15.5748 21.4214 15.5118 21.5124 15.4278 21.5964C15.3438 21.6804 15.2738 21.7224 15.2178 21.7224C15.1758 21.7224 15.1128 21.6734 15.0288 21.5754C14.9588 21.4774 14.8888 21.3514 14.8188 21.1974C14.7628 21.0574 14.7068 20.9104 14.6508 20.7564C14.5948 20.6024 14.5668 20.4694 14.5668 20.3574ZM24.9324 20.2944C25.0024 19.8884 25.1214 19.3564 25.2894 18.6984C25.4714 18.0264 25.6814 17.3194 25.9194 16.5774C26.1574 15.8214 26.4094 15.0654 26.6754 14.3094C26.9414 13.5534 27.2004 12.8744 27.4524 12.2724C27.6344 11.8384 27.7954 11.5024 27.9354 11.2644C28.0754 11.0124 28.2294 10.8024 28.3974 10.6344C28.5934 10.6624 28.7964 10.7114 29.0064 10.7814C29.2164 10.8514 29.4194 10.9354 29.6154 11.0334C29.8114 11.1314 29.9864 11.2364 30.1404 11.3484C30.2944 11.4464 30.4134 11.5444 30.4974 11.6424C30.1194 12.0904 29.7834 12.6014 29.4894 13.1754C29.2094 13.7494 28.9224 14.4844 28.6284 15.3804C29.3844 14.7084 30.0494 14.0644 30.6234 13.4484C31.2114 12.8324 31.7574 12.1464 32.2614 11.3904C32.3454 11.3204 32.4924 11.2854 32.7024 11.2854C32.8984 11.2854 33.0874 11.3204 33.2694 11.3904C33.4514 11.4464 33.5774 11.5304 33.6474 11.6424C33.3954 12.3144 33.2694 12.9794 33.2694 13.6374C33.2694 14.2534 33.3604 14.7154 33.5424 15.0234C33.5284 15.1074 33.4304 15.2684 33.2484 15.5064C33.0804 15.7444 32.8914 15.9684 32.6814 16.1784C32.3034 15.9824 31.9674 15.7164 31.6734 15.3804C31.3794 15.0304 31.1624 14.6524 31.0224 14.2464C30.3644 14.7084 29.8044 15.1634 29.3424 15.6114C28.8804 16.0454 28.4814 16.5354 28.1454 17.0814C27.8234 17.6134 27.5434 18.2294 27.3054 18.9294C27.0814 19.6294 26.8644 20.4624 26.6544 21.4284C26.5284 21.4144 26.3744 21.3654 26.1924 21.2814C26.0244 21.2114 25.8494 21.1204 25.6674 21.0084C25.4994 20.8964 25.3454 20.7774 25.2054 20.6514C25.0654 20.5254 24.9744 20.4064 24.9324 20.2944ZM33.9271 19.3074C33.9271 19.1814 33.9341 19.0274 33.9481 18.8454C33.9761 18.6494 34.0181 18.3974 34.0741 18.0894C34.1301 17.7674 34.2001 17.3824 34.2841 16.9344C34.3821 16.4864 34.5011 15.9474 34.6411 15.3174C34.6691 15.1774 34.7321 14.9534 34.8301 14.6454C34.9281 14.3374 35.0541 14.0154 35.2081 13.6794C35.3761 13.3294 35.5721 12.9934 35.7961 12.6714C36.0341 12.3494 36.3141 12.1114 36.6361 11.9574C36.8741 12.0134 37.1891 12.1604 37.5811 12.3984C37.9731 12.6224 38.3091 12.9374 38.5891 13.3434C38.2671 13.7074 37.9941 14.0714 37.7701 14.4354C37.5601 14.7994 37.3641 15.1774 37.1821 15.5694C37.0141 15.9614 36.8531 16.3674 36.6991 16.7874C36.5591 17.2074 36.3981 17.6484 36.2161 18.1104C36.0621 18.5024 35.9221 18.9084 35.7961 19.3284C35.6701 19.7344 35.6001 20.0914 35.5861 20.3994C35.5861 20.6514 35.5791 20.8264 35.5651 20.9244C35.5651 21.0364 35.5301 21.0924 35.4601 21.0924C35.4041 21.0924 35.2921 21.0574 35.1241 20.9874C34.9561 20.9174 34.7811 20.8124 34.5991 20.6724C34.4311 20.5184 34.2771 20.3294 34.1371 20.1054C33.9971 19.8814 33.9271 19.6154 33.9271 19.3074ZM37.9381 10.1934C37.9381 10.1094 37.9591 9.98335 38.0011 9.81535C37.9311 9.74535 37.8681 9.64035 37.8121 9.50035C37.7701 9.36035 37.7491 9.23435 37.7491 9.12235C37.7491 8.99635 37.7631 8.82835 37.7911 8.61835C37.8331 8.39436 37.8821 8.15636 37.9381 7.90436C37.9941 7.65236 38.0641 7.39336 38.1481 7.12736C38.2321 6.84735 38.3161 6.59535 38.4001 6.37135C38.5681 6.37135 38.7711 6.42035 39.0091 6.51835C39.2611 6.60235 39.5131 6.72135 39.7651 6.87535C40.0171 7.01535 40.2481 7.17635 40.4581 7.35835C40.6681 7.52636 40.8291 7.68736 40.9411 7.84135C40.7871 7.99535 40.5841 8.21235 40.3321 8.49236C40.0801 8.75836 39.8351 9.04536 39.5971 9.35336C39.3591 9.64735 39.1421 9.92735 38.9461 10.1934C38.7501 10.4594 38.6241 10.6484 38.5681 10.7604C38.4001 10.7324 38.2531 10.6624 38.1271 10.5504C38.0011 10.4244 37.9381 10.3054 37.9381 10.1934ZM46.114 12.3564C46.1 12.6224 46.051 12.9024 45.967 13.1964C45.897 13.4764 45.806 13.7354 45.694 13.9734C45.582 14.1974 45.463 14.3864 45.337 14.5404C45.211 14.6944 45.092 14.7714 44.98 14.7714C44.826 14.7574 44.735 14.6524 44.707 14.4564C44.707 14.4144 44.721 14.3514 44.749 14.2674C44.791 14.1694 44.833 14.0644 44.875 13.9524C44.917 13.8404 44.952 13.7284 44.98 13.6164C45.022 13.5044 45.043 13.4064 45.043 13.3224C45.043 13.1264 44.994 12.9654 44.896 12.8394C44.812 12.6994 44.693 12.6294 44.539 12.6294C43.979 12.6294 43.552 12.9794 43.258 13.6794C42.964 14.3794 42.817 15.4084 42.817 16.7664C42.817 16.9064 42.824 16.9904 42.838 17.0184C43.132 17.0044 43.391 16.9974 43.615 16.9974C43.853 16.9834 44.084 16.9764 44.308 16.9764C44.322 17.0044 44.329 17.0604 44.329 17.1444C44.329 17.2704 44.301 17.3614 44.245 17.4174C43.923 17.4874 43.664 17.5504 43.468 17.6064C43.286 17.6484 43.146 17.6904 43.048 17.7324C42.95 17.7744 42.887 17.8234 42.859 17.8794C42.845 17.9214 42.838 17.9844 42.838 18.0684C42.838 18.1804 42.838 18.2924 42.838 18.4044C42.852 18.5164 42.859 18.6564 42.859 18.8244C42.859 20.0004 42.537 20.9454 41.893 21.6594C41.263 22.3734 40.381 22.7864 39.247 22.8984C39.051 22.8844 38.848 22.8284 38.638 22.7304C38.428 22.6324 38.225 22.5064 38.029 22.3524C37.847 22.1984 37.686 22.0234 37.546 21.8274C37.406 21.6454 37.308 21.4564 37.252 21.2604C37.252 20.7284 37.364 20.2244 37.588 19.7484C37.812 19.2584 38.113 18.8314 38.491 18.4674C38.883 18.0894 39.338 17.7884 39.856 17.5644C40.388 17.3264 40.962 17.1864 41.578 17.1444C41.578 16.7944 41.543 16.4514 41.473 16.1154C41.403 15.7794 41.326 15.4574 41.242 15.1494C41.172 14.8274 41.102 14.5194 41.032 14.2254C40.962 13.9174 40.927 13.6164 40.927 13.3224C40.927 12.9444 41.004 12.5734 41.158 12.2094C41.312 11.8314 41.515 11.4884 41.767 11.1804C42.019 10.8584 42.313 10.5854 42.649 10.3614C42.985 10.1374 43.335 9.98336 43.699 9.89935C43.853 9.94135 44.056 10.0674 44.308 10.2774C44.574 10.4734 44.833 10.6974 45.085 10.9494C45.337 11.2014 45.561 11.4604 45.757 11.7264C45.953 11.9784 46.072 12.1884 46.114 12.3564ZM39.184 21.9324C39.52 21.7924 39.835 21.5894 40.129 21.3234C40.437 21.0574 40.703 20.7564 40.927 20.4204C41.151 20.0844 41.326 19.7274 41.452 19.3494C41.592 18.9714 41.662 18.6004 41.662 18.2364C41.382 18.2784 41.074 18.4114 40.738 18.6354C40.402 18.8454 40.087 19.1044 39.793 19.4124C39.499 19.7064 39.254 20.0144 39.058 20.3364C38.862 20.6584 38.764 20.9384 38.764 21.1764C38.764 21.4844 38.904 21.7364 39.184 21.9324ZM47.3678 12.6714C47.2978 12.5874 47.2348 12.4124 47.1788 12.1464C47.1228 11.8664 47.0948 11.6284 47.0948 11.4324C47.4588 11.4604 47.8088 11.4884 48.1448 11.5164C48.4808 11.5304 48.7888 11.5444 49.0688 11.5584C49.2788 11.1384 49.5028 10.7254 49.7408 10.3194C49.9928 9.89935 50.2308 9.52135 50.4548 9.18535C50.6928 8.83536 50.9098 8.54136 51.1058 8.30336C51.3158 8.06535 51.4768 7.91135 51.5888 7.84135C51.7288 7.84135 51.9038 7.86935 52.1138 7.92535C52.3378 7.96736 52.5618 8.03036 52.7858 8.11435C53.0098 8.18435 53.2128 8.26135 53.3948 8.34535C53.5768 8.42936 53.7028 8.51336 53.7728 8.59736C53.3528 9.12935 52.9888 9.62635 52.6808 10.0884C52.3868 10.5364 52.0648 11.0544 51.7148 11.6424C51.9948 11.6424 52.2748 11.6354 52.5548 11.6214C52.8488 11.6074 53.1428 11.5864 53.4368 11.5584C53.5068 11.6284 53.5628 11.7194 53.6048 11.8314C53.6468 11.9294 53.6678 12.0344 53.6678 12.1464C52.9818 12.3984 52.1488 12.5384 51.1688 12.5664C50.8188 13.2384 50.5038 13.9104 50.2238 14.5824C49.9578 15.2404 49.7268 15.8774 49.5308 16.4934C49.3488 17.1094 49.2018 17.6904 49.0898 18.2364C48.9918 18.7824 48.9428 19.2724 48.9428 19.7064C48.9428 20.3224 49.1738 20.6654 49.6358 20.7354C50.0558 20.6794 50.4548 20.5744 50.8328 20.4204C51.2108 20.2664 51.5468 20.0704 51.8408 19.8324C51.9248 19.9584 51.9738 20.0634 51.9878 20.1474C51.9038 20.2734 51.7568 20.4204 51.5468 20.5884C51.3508 20.7564 51.1338 20.9174 50.8958 21.0714C50.6578 21.2394 50.4268 21.3794 50.2028 21.4914C49.9788 21.6034 49.8108 21.6664 49.6988 21.6804C49.3488 21.6664 48.9988 21.5894 48.6488 21.4494C48.2988 21.3094 47.9768 21.1344 47.6828 20.9244C47.4028 20.7144 47.1718 20.4834 46.9898 20.2314C46.8078 19.9654 46.7168 19.7064 46.7168 19.4544C46.7168 19.1184 46.7588 18.6984 46.8428 18.1944C46.9408 17.6764 47.0738 17.1164 47.2418 16.5144C47.4098 15.9124 47.6058 15.2824 47.8298 14.6244C48.0538 13.9664 48.2988 13.3154 48.5648 12.6714H47.3678ZM65.6496 14.2674C65.4256 14.2814 65.1526 14.4284 64.8306 14.7084C64.5086 14.9744 64.1586 15.3244 63.7806 15.7584C63.4166 16.1784 63.0316 16.6474 62.6256 17.1654C62.2336 17.6834 61.8486 18.2014 61.4706 18.7194C61.1066 19.2234 60.7636 19.6994 60.4416 20.1474C60.1196 20.5954 59.8466 20.9524 59.6226 21.2184C59.3146 21.0924 59.0486 20.9104 58.8246 20.6724C58.6006 20.4204 58.4396 20.1124 58.3416 19.7484C58.4116 19.3144 58.5096 18.8664 58.6356 18.4044C58.7616 17.9284 58.9226 17.4384 59.1186 16.9344C59.3286 16.4304 59.5806 15.9054 59.8746 15.3594C60.1826 14.7994 60.5536 14.2114 60.9876 13.5954C60.7776 13.6094 60.4906 13.7634 60.1266 14.0574C59.7626 14.3374 59.3706 14.7084 58.9506 15.1704C58.5306 15.6184 58.0966 16.1294 57.6486 16.7034C57.2006 17.2634 56.7806 17.8164 56.3886 18.3624C55.8706 19.0904 55.4366 19.7274 55.0866 20.2734C54.7506 20.8194 54.5056 21.1414 54.3516 21.2394C53.9876 20.9734 53.7356 20.6864 53.5956 20.3784C53.4556 20.0704 53.3506 19.7274 53.2806 19.3494C53.2946 19.0134 53.3436 18.5934 53.4276 18.0894C53.5256 17.5854 53.6586 17.0674 53.8266 16.5354C54.1486 15.5134 54.5616 14.4984 55.0656 13.4904C55.5836 12.4824 56.0806 11.5584 56.5566 10.7184C56.9486 10.8024 57.2986 10.9354 57.6066 11.1174C57.9286 11.2994 58.2646 11.5654 58.6146 11.9154C58.4746 12.3494 58.2576 12.8114 57.9636 13.3014C57.6696 13.7774 57.3616 14.2814 57.0396 14.8134C56.7176 15.3454 56.4236 15.8914 56.1576 16.4514C55.8916 17.0114 55.7166 17.5784 55.6326 18.1524C56.0246 17.5924 56.4866 16.9484 57.0186 16.2204C57.5646 15.4924 58.1176 14.8064 58.6776 14.1624C59.2516 13.5184 59.8186 12.9724 60.3786 12.5244C60.9386 12.0764 61.4426 11.8524 61.8906 11.8524C62.0586 11.8524 62.2406 11.8804 62.4366 11.9364C62.6326 11.9924 62.8146 12.0624 62.9826 12.1464C63.1506 12.2304 63.2906 12.3144 63.4026 12.3984C63.5146 12.4684 63.5776 12.5244 63.5916 12.5664C63.5216 12.8464 63.3536 13.2314 63.0876 13.7214C62.8356 14.1974 62.5626 14.7014 62.2686 15.2334C61.9746 15.7654 61.7016 16.2834 61.4496 16.7874C61.1976 17.2774 61.0506 17.6694 61.0086 17.9634C61.6946 17.0254 62.3386 16.1784 62.9406 15.4224C63.5426 14.6524 64.1096 13.9944 64.6416 13.4484C65.1736 12.9024 65.6636 12.4824 66.1116 12.1884C66.5736 11.8944 67.0076 11.7474 67.4136 11.7474C67.6936 11.7474 67.9526 11.8244 68.1906 11.9784C68.4426 12.1184 68.6176 12.3284 68.7156 12.6084C68.5896 13.0284 68.3796 13.5324 68.0856 14.1204C67.8056 14.7084 67.5186 15.3314 67.2246 15.9894C66.9306 16.6334 66.6646 17.2704 66.4266 17.9004C66.2026 18.5304 66.0906 19.0974 66.0906 19.6014C66.0906 19.8954 66.1326 20.0914 66.2166 20.1894C66.3006 20.2734 66.4196 20.3154 66.5736 20.3154C66.7416 20.3154 66.8956 20.2874 67.0356 20.2314C67.1896 20.1614 67.3016 20.1264 67.3716 20.1264C67.4556 20.1824 67.5046 20.2524 67.5186 20.3364C67.5326 20.4204 67.5396 20.4974 67.5396 20.5674C67.2596 20.7914 66.9726 20.9734 66.6786 21.1134C66.3846 21.2674 66.0556 21.3444 65.6916 21.3444C65.3556 21.3444 65.0756 21.2884 64.8516 21.1764C64.6416 21.0644 64.4666 20.9104 64.3266 20.7144C64.1866 20.5184 64.0886 20.2944 64.0326 20.0424C63.9766 19.7904 63.9486 19.5174 63.9486 19.2234C63.9486 18.7474 64.0116 18.2784 64.1376 17.8164C64.2636 17.3404 64.4106 16.8924 64.5786 16.4724C64.7606 16.0384 64.9496 15.6394 65.1456 15.2754C65.3416 14.8974 65.5096 14.5614 65.6496 14.2674ZM76.8142 12.2304C76.9542 12.2304 77.1152 12.2584 77.2972 12.3144C77.4932 12.3564 77.6682 12.4194 77.8222 12.5034C77.9762 12.5734 78.1022 12.6504 78.2002 12.7344C78.3122 12.8184 78.3682 12.8954 78.3682 12.9654C78.0882 13.5534 77.8292 14.1484 77.5912 14.7504C77.3532 15.3384 77.1502 15.9054 76.9822 16.4514C76.8142 16.9974 76.6812 17.5084 76.5832 17.9844C76.4992 18.4604 76.4572 18.8734 76.4572 19.2234C76.4572 19.6154 76.4992 19.9444 76.5832 20.2104C76.6672 20.4624 76.8072 20.6444 77.0032 20.7564C76.8352 20.8684 76.6182 20.9594 76.3522 21.0294C76.0862 21.0994 75.8482 21.1344 75.6382 21.1344C74.8822 21.1344 74.5042 20.6164 74.5042 19.5804C74.5042 18.7824 74.7702 17.6904 75.3022 16.3044C75.0222 16.9484 74.7002 17.5574 74.3362 18.1314C73.9722 18.6914 73.6012 19.1884 73.2232 19.6224C72.8452 20.0564 72.4602 20.4134 72.0682 20.6934C71.6902 20.9594 71.3402 21.1204 71.0182 21.1764C70.5002 21.1484 70.0802 20.9034 69.7582 20.4414C69.4362 19.9654 69.2752 19.3634 69.2752 18.6354C69.2752 17.8514 69.4432 17.0254 69.7792 16.1574C70.1152 15.2894 70.5422 14.4844 71.0602 13.7424C71.5922 13.0004 72.1662 12.3844 72.7822 11.8944C73.3982 11.3904 73.9932 11.1244 74.5672 11.0964C74.7072 11.1384 74.8612 11.2224 75.0292 11.3484C75.2112 11.4744 75.3792 11.6214 75.5332 11.7894C75.7012 11.9574 75.8412 12.1324 75.9532 12.3144C76.0652 12.4824 76.1282 12.6294 76.1422 12.7554C75.5822 12.8394 75.0012 13.1124 74.3992 13.5744C73.8112 14.0364 73.2722 14.5964 72.7822 15.2544C72.3062 15.8984 71.9142 16.5914 71.6062 17.3334C71.2982 18.0754 71.1442 18.7684 71.1442 19.4124C71.1442 19.6784 71.2422 19.8464 71.4382 19.9164C71.8442 19.8324 72.3132 19.4894 72.8452 18.8874C73.3772 18.2714 74.0212 17.3264 74.7772 16.0524C74.9172 15.8004 75.0712 15.5204 75.2392 15.2124C75.4212 14.9044 75.6032 14.5824 75.7852 14.2464C75.9672 13.9104 76.1422 13.5744 76.3102 13.2384C76.4922 12.8884 76.6602 12.5524 76.8142 12.2304ZM86.6785 12.3564C86.6645 12.6224 86.6155 12.9024 86.5315 13.1964C86.4615 13.4764 86.3705 13.7354 86.2585 13.9734C86.1465 14.1974 86.0275 14.3864 85.9015 14.5404C85.7755 14.6944 85.6565 14.7714 85.5445 14.7714C85.3905 14.7574 85.2995 14.6524 85.2715 14.4564C85.2715 14.4144 85.2855 14.3514 85.3135 14.2674C85.3555 14.1694 85.3975 14.0644 85.4395 13.9524C85.4815 13.8404 85.5165 13.7284 85.5445 13.6164C85.5865 13.5044 85.6075 13.4064 85.6075 13.3224C85.6075 13.1264 85.5585 12.9654 85.4605 12.8394C85.3765 12.6994 85.2575 12.6294 85.1035 12.6294C84.5435 12.6294 84.1165 12.9794 83.8225 13.6794C83.5285 14.3794 83.3815 15.4084 83.3815 16.7664C83.3815 16.9064 83.3885 16.9904 83.4025 17.0184C83.6965 17.0044 83.9555 16.9974 84.1795 16.9974C84.4175 16.9834 84.6485 16.9764 84.8725 16.9764C84.8865 17.0044 84.8935 17.0604 84.8935 17.1444C84.8935 17.2704 84.8655 17.3614 84.8095 17.4174C84.4875 17.4874 84.2285 17.5504 84.0325 17.6064C83.8505 17.6484 83.7105 17.6904 83.6125 17.7324C83.5145 17.7744 83.4515 17.8234 83.4235 17.8794C83.4095 17.9214 83.4025 17.9844 83.4025 18.0684C83.4025 18.1804 83.4025 18.2924 83.4025 18.4044C83.4165 18.5164 83.4235 18.6564 83.4235 18.8244C83.4235 20.0004 83.1015 20.9454 82.4575 21.6594C81.8275 22.3734 80.9455 22.7864 79.8115 22.8984C79.6155 22.8844 79.4125 22.8284 79.2025 22.7304C78.9925 22.6324 78.7895 22.5064 78.5935 22.3524C78.4115 22.1984 78.2505 22.0234 78.1105 21.8274C77.9705 21.6454 77.8725 21.4564 77.8165 21.2604C77.8165 20.7284 77.9285 20.2244 78.1525 19.7484C78.3765 19.2584 78.6775 18.8314 79.0555 18.4674C79.4475 18.0894 79.9025 17.7884 80.4205 17.5644C80.9525 17.3264 81.5265 17.1864 82.1425 17.1444C82.1425 16.7944 82.1075 16.4514 82.0375 16.1154C81.9675 15.7794 81.8905 15.4574 81.8065 15.1494C81.7365 14.8274 81.6665 14.5194 81.5965 14.2254C81.5265 13.9174 81.4915 13.6164 81.4915 13.3224C81.4915 12.9444 81.5685 12.5734 81.7225 12.2094C81.8765 11.8314 82.0795 11.4884 82.3315 11.1804C82.5835 10.8584 82.8775 10.5854 83.2135 10.3614C83.5495 10.1374 83.8995 9.98336 84.2635 9.89935C84.4175 9.94135 84.6205 10.0674 84.8725 10.2774C85.1385 10.4734 85.3975 10.6974 85.6495 10.9494C85.9015 11.2014 86.1255 11.4604 86.3215 11.7264C86.5175 11.9784 86.6365 12.1884 86.6785 12.3564ZM79.7485 21.9324C80.0845 21.7924 80.3995 21.5894 80.6935 21.3234C81.0015 21.0574 81.2675 20.7564 81.4915 20.4204C81.7155 20.0844 81.8905 19.7274 82.0165 19.3494C82.1565 18.9714 82.2265 18.6004 82.2265 18.2364C81.9465 18.2784 81.6385 18.4114 81.3025 18.6354C80.9665 18.8454 80.6515 19.1044 80.3575 19.4124C80.0635 19.7064 79.8185 20.0144 79.6225 20.3364C79.4265 20.6584 79.3285 20.9384 79.3285 21.1764C79.3285 21.4844 79.4685 21.7364 79.7485 21.9324Z" fill="#C60F0F"></path>
  <path d="M105.742 20.3237C105.375 20.7847 104.922 21.187 104.383 21.5308C103.844 21.8745 103.266 22.1597 102.648 22.3862C102.031 22.6128 101.398 22.7808 100.75 22.8901C100.102 23.0073 99.4844 23.0659 98.8984 23.0659C97.7656 23.0659 96.7227 22.8628 95.7695 22.4565C94.8164 22.0503 93.9922 21.4917 93.2969 20.7808C92.6094 20.062 92.0703 19.2183 91.6797 18.2495C91.2891 17.2808 91.0938 16.2378 91.0938 15.1206C91.0938 14.269 91.1914 13.437 91.3867 12.6245C91.582 11.8042 91.8594 11.0347 92.2188 10.3159C92.5859 9.58936 93.0312 8.92529 93.5547 8.32373C94.0781 7.71436 94.6719 7.19092 95.3359 6.75342C96 6.31592 96.7266 5.97607 97.5156 5.73389C98.3047 5.4917 99.1484 5.37061 100.047 5.37061C100.383 5.37061 100.742 5.38623 101.125 5.41748C101.508 5.44092 101.887 5.48779 102.262 5.55811C102.645 5.62061 103.016 5.71045 103.375 5.82764C103.734 5.94482 104.062 6.08936 104.359 6.26123L104.031 10.7378C103.594 10.5737 103.141 10.4644 102.672 10.4097C102.211 10.3472 101.758 10.3159 101.312 10.3159C100.688 10.3159 100.102 10.4136 99.5547 10.6089C99.0156 10.7964 98.543 11.0698 98.1367 11.4292C97.7383 11.7886 97.4219 12.2261 97.1875 12.7417C96.9531 13.2573 96.8359 13.8394 96.8359 14.4878C96.8359 14.894 96.8906 15.2886 97 15.6714C97.1094 16.0464 97.2734 16.3823 97.4922 16.6792C97.7188 16.9683 97.9961 17.2026 98.3242 17.3823C98.6602 17.562 99.0469 17.6519 99.4844 17.6519C99.7812 17.6519 100.086 17.6128 100.398 17.5347C100.719 17.4565 100.992 17.3237 101.219 17.1362L101.266 16.2222L98.4531 16.1753L98.5938 12.6597C99.7578 12.6206 100.922 12.5894 102.086 12.5659C103.25 12.5347 104.422 12.4956 105.602 12.4487L105.742 20.3237ZM112.762 6.21436L111.941 22.1753L106.996 22.4331L106.527 6.54248L112.762 6.21436ZM124.809 6.05029C124.762 6.78467 124.719 7.51123 124.68 8.22998C124.641 8.94873 124.59 9.67529 124.527 10.4097L119.559 10.6675V12.144H123.871L123.637 15.7769L119.535 15.894L119.559 22.3628L113.629 22.48L114.004 6.05029H124.809ZM137.852 6.19092L137.734 11.1597L134.242 11.3003L133.82 22.1753L128.875 22.4331L128.43 11.5581L124.938 11.7456L125.078 6.21436L137.852 6.19092ZM150.531 16.7144C150.531 17.7847 150.344 18.7104 149.969 19.4917C149.602 20.2651 149.094 20.9058 148.445 21.4136C147.805 21.9136 147.051 22.2847 146.184 22.5269C145.324 22.7612 144.398 22.8784 143.406 22.8784C143.023 22.8784 142.602 22.8276 142.141 22.7261C141.688 22.6245 141.227 22.4995 140.758 22.3511C140.289 22.1948 139.836 22.0308 139.398 21.8589C138.969 21.6792 138.586 21.5112 138.25 21.355L138.766 16.7612C139.43 17.1597 140.164 17.4644 140.969 17.6753C141.781 17.8784 142.578 17.98 143.359 17.98C143.508 17.98 143.688 17.9761 143.898 17.9683C144.109 17.9526 144.309 17.9175 144.496 17.8628C144.691 17.8003 144.855 17.7104 144.988 17.5933C145.121 17.4761 145.188 17.3081 145.188 17.0894C145.188 16.9409 145.141 16.8159 145.047 16.7144C144.953 16.605 144.832 16.519 144.684 16.4565C144.535 16.3862 144.367 16.3354 144.18 16.3042C143.992 16.2651 143.809 16.2378 143.629 16.2222C143.449 16.2065 143.281 16.1987 143.125 16.1987C142.969 16.1987 142.844 16.1987 142.75 16.1987C142.078 16.1987 141.465 16.0933 140.91 15.8823C140.363 15.6714 139.891 15.3745 139.492 14.9917C139.102 14.6011 138.797 14.1323 138.578 13.5854C138.359 13.0308 138.25 12.4175 138.25 11.7456C138.25 10.8237 138.434 9.99951 138.801 9.27295C139.176 8.53857 139.672 7.91748 140.289 7.40967C140.914 6.89404 141.629 6.49951 142.434 6.22607C143.238 5.95264 144.07 5.81592 144.93 5.81592C145.312 5.81592 145.707 5.83154 146.113 5.86279C146.52 5.88623 146.922 5.93311 147.32 6.00342C147.727 6.07373 148.121 6.16357 148.504 6.27295C148.887 6.38232 149.25 6.51904 149.594 6.68311L149.148 11.4409C148.617 11.2612 148.059 11.1128 147.473 10.9956C146.895 10.8706 146.328 10.8081 145.773 10.8081C145.672 10.8081 145.539 10.812 145.375 10.8198C145.219 10.8198 145.051 10.8315 144.871 10.855C144.699 10.8706 144.523 10.8979 144.344 10.937C144.164 10.9761 144.004 11.0308 143.863 11.1011C143.723 11.1636 143.609 11.2495 143.523 11.3589C143.438 11.4683 143.398 11.5972 143.406 11.7456C143.414 11.9175 143.477 12.0503 143.594 12.144C143.719 12.2378 143.875 12.3081 144.062 12.355C144.258 12.394 144.469 12.4136 144.695 12.4136C144.93 12.4136 145.16 12.4097 145.387 12.4019C145.613 12.3862 145.824 12.3745 146.02 12.3667C146.215 12.3511 146.375 12.3472 146.5 12.355C147.125 12.394 147.688 12.5269 148.188 12.7534C148.688 12.98 149.109 13.2808 149.453 13.6558C149.805 14.0308 150.07 14.48 150.25 15.0034C150.438 15.519 150.531 16.0894 150.531 16.7144Z" fill="#111318"></path>
</svg>
