<svg id="Layer_1" data-name="Layer 1" xmlns="http://www.w3.org/2000/svg" width="40" height="24" viewBox="0 0 40 24"><g id="Amex"><rect id="_Path_" data-name="&lt;Path&gt;" width="40" height="24" rx="2" fill="#016fd0"/><path d="M25.69,15.29a.53.53,0,0,1-.54.5H23.79v-1h1.34A.54.54,0,0,1,25.69,15.29ZM18.78,11H3.71l-.4-1H2.25l-.4,1H0V8.24L1.5,4.75H4.09l.85,2V4.75H8.17l.5,1.41.49-1.41H23.63v.71a3.17,3.17,0,0,1,2-.71h4.69l.84,1.93V4.75h2.69l.75,1.11V4.75h2.72V11H34.62l-.71-1.12V11h-4l-.4-1H28.48l-.39,1H25.4a2.67,2.67,0,0,1-1.77-.7V11H19.58l-.8-1ZM32,10.22h1.17v-3l2,3h1.45V5.52H35.36v3l-1.91-3H32Zm-3.69-4.7-2,4.7h1.32l.37-.94H30.1l.37.94h1.35l-2-4.7ZM23.43,7.89a2.07,2.07,0,0,0,2,2.33h.26l.49-1h-.31A1.15,1.15,0,0,1,24.62,7.9a1.13,1.13,0,0,1,1.1-1.27h1.35V5.52h-1.3A2.16,2.16,0,0,0,23.43,7.89Zm-1.77,2.33h1.2V5.52h-1.2Zm-16.08,0-2-4.7H2l-2,4.7H1.32l.38-.94H3.87l.37.94Zm6-4.7H9.74l-1.06,3-1.09-3H5.72v4.7H6.9V6.76l1.25,3.46h1l1.25-3.46v3.46H11.6Zm4.64,0H12.41v4.7h3.83v-1H13.59V8.37h2.59v-1H13.59V6.57h2.65Zm2.35,3L20,10.22h1.44L19.89,8.49a1.43,1.43,0,0,0,1.29-1.44,1.53,1.53,0,0,0-1.64-1.53H16.92v4.7H18.1V8.55Zm1.74,6.26H19v1.08h1.29a.54.54,0,0,0,.59-.54A.53.53,0,0,0,20.33,14.81Zm9.35-6.55L29,6.61l-.66,1.65Zm7.89,6.55c-.38,0-.49.19-.49.38a.4.4,0,0,0,.43.41h1.11a1.33,1.33,0,0,1,1.38.78V13.84l-.45,1ZM40,17.55v1.27a2.72,2.72,0,0,1-1.36.43H25.27l-.8-1v1H21.83V17.56a2.16,2.16,0,0,1-1.13.24h-.9v1.45h-4l-.71-.95-.73.95H7.76V13h6.65l.72.93.73-.93H40v.78H37.76c-1.38,0-1.85.72-1.85,1.48a1.32,1.32,0,0,0,1.44,1.41h1.06c.35,0,.5.2.5.39s-.15.4-.5.4H36.06v1h2.51A1.39,1.39,0,0,0,40,17.55Zm-27.59-3.8H8.57v4.7h3.84v-1H9.76v-.84h2.58v-1H9.76v-.8h2.65Zm3.4,2.35,1.89-2.35H16.27l-1.14,1.47L14,13.75H12.51l1.91,2.38-1.87,2.32H14L15.09,17l1.11,1.45h1.48Zm6.29-.77a1.55,1.55,0,0,0-1.68-1.58h-2.6v4.7H19V17h1.23A1.63,1.63,0,0,0,22.1,15.33Zm5,3.12-1.55-1.73a1.44,1.44,0,0,0,1.29-1.45,1.51,1.51,0,0,0-1.64-1.52H22.61v4.7h1.18V16.78h.49l1.41,1.67Zm4.07-4.7H27.37v4.7H31.2v-1H28.55v-.84h2.58v-1H28.55v-.8H31.2ZM35.78,17a1.29,1.29,0,0,0-1.47-1.35H33.19a.4.4,0,0,1-.43-.41c0-.19.12-.38.5-.38h2l.49-1.06H33.44c-1.37,0-1.84.72-1.84,1.48A1.32,1.32,0,0,0,33,16.64H34.1c.35,0,.5.2.5.39s-.15.4-.5.4H31.75v1h2.5A1.4,1.4,0,0,0,35.78,17ZM19.44,6.57H18.1v1h1.36A.53.53,0,0,0,20,7.07.54.54,0,0,0,19.44,6.57ZM2.12,8.26H3.44L2.78,6.61Z" fill="#fff"/><path d="M39.9,13.86v-.1h0ZM40,17a1.7,1.7,0,0,0-.1-.57v1.16A1.87,1.87,0,0,0,40,17Zm-7-9.74,2,3h1.44V5.55H35.27v3L33.36,5.55H31.87v4.69h1.18ZM3.55,5.55l2,4.69H4.22L3.85,9.3H1.69l-.37.94H0L2,5.55H3.55ZM3.43,8.28,2.77,6.64,2.11,8.28ZM28.94,6.64ZM8.66,8.58l-1.09-3H5.71v4.69H6.88V6.78l1.24,3.46h1L10.4,6.78v3.46h1.17V5.55H9.72Zm14.14-3H21.6v4.69h1.2Zm3.37,4.69,2-4.69h1.53l2,4.69H30.39L30,9.3H27.86l-.37.94Zm2.77-3.6-.66,1.64H29.6l-.66-1.64Zm-3.56,3.6h.26l.49-1h-.3a1.15,1.15,0,0,1-1.27-1.29,1.13,1.13,0,0,1,1.09-1.27H27V5.55H25.7a2.15,2.15,0,0,0-2.33,2.36A2.07,2.07,0,0,0,25.38,10.24ZM8.54,18.45h3.83v-1H9.73V16.6h2.58v-1H9.73v-.8h2.64V13.76H8.54Zm17-1.73,1.54,1.73H25.63l-1.41-1.67h-.49v1.67H22.55V13.76h2.61a1.51,1.51,0,0,1,1.64,1.52A1.43,1.43,0,0,1,25.52,16.72Zm.1-1.42a.53.53,0,0,0-.55-.49H23.73v1h1.35A.54.54,0,0,0,25.62,15.3Zm-3.58,0A1.62,1.62,0,0,1,20.21,17H19v1.48h-1.2V13.76h2.59A1.54,1.54,0,0,1,22,15.34Zm-1.19,0a.53.53,0,0,0-.58-.54H19V15.9h1.3A.54.54,0,0,0,20.85,15.36Zm6.44,3.09h3.83v-1H28.48V16.6h2.57v-1H28.48v-.8h2.64V13.76H27.29Zm6.93-2.84H33.11a.4.4,0,0,1-.43-.41c0-.19.11-.39.49-.39h2l.5-1.05H33.35c-1.37,0-1.84.72-1.84,1.48A1.31,1.31,0,0,0,33,16.64H34c.35,0,.5.2.5.4s-.15.39-.5.39H31.66v1h2.5A1.4,1.4,0,0,0,35.69,17,1.28,1.28,0,0,0,34.22,15.61ZM20,10.24,18.54,8.58h-.49v1.66H16.88V5.55h2.61a1.51,1.51,0,0,1,1.63,1.52,1.42,1.42,0,0,1-1.28,1.44l1.54,1.73Zm0-3.15a.53.53,0,0,0-.55-.49H18.05v1h1.36A.53.53,0,0,0,19.94,7.09Zm-3.71,6.67-1.14,1.47L14,13.76H12.47l1.91,2.37-1.86,2.32H14L15.05,17l1.1,1.45h1.48L15.77,16.1l1.88-2.34Zm-3.86-3.52H16.2v-1H13.56V8.39h2.58v-1H13.56V6.6H16.2v-1H12.37Zm23.45,5a1.31,1.31,0,0,0,1.43,1.4h1.06c.35,0,.5.2.5.4s-.15.39-.5.39H36v1h2.5a1.4,1.4,0,0,0,1.43-.9V16.39a1.34,1.34,0,0,0-1.38-.78H37.41A.4.4,0,0,1,37,15.2c0-.19.12-.39.49-.39h2l.45-1v-.1H37.66C36.29,13.76,35.82,14.48,35.82,15.24Z" fill="none"/></g></svg>