<svg id="Layer_1" data-name="Layer 1" xmlns="http://www.w3.org/2000/svg" width="40" height="24" viewBox="0 0 40 24"><g id="Klarna"><rect id="_Path_" data-name="&lt;Path&gt;" width="40" height="24" rx="2" fill="#ffb3c7"/><path id="Klarna-2" data-name="Klarna" d="M35.09,13.73a.92.92,0,1,0,.91.92A.92.92,0,0,0,35.09,13.73Zm-3-.71a1.32,1.32,0,1,0-1.31,1.26A1.29,1.29,0,0,0,32.09,13Zm0-2.44h1.45v4.89H32.1v-.31a2.59,2.59,0,1,1,0-4.27v-.31Zm-11.62.63v-.63H19v4.89h1.48V13.18c0-.77.83-1.18,1.41-1.18h0V10.58a1.8,1.8,0,0,0-1.42.63ZM16.78,13a1.32,1.32,0,1,0-1.32,1.26A1.29,1.29,0,0,0,16.78,13Zm0-2.44h1.46v4.89H16.78v-.31a2.52,2.52,0,0,1-1.43.44,2.58,2.58,0,0,1,0-5.16,2.53,2.53,0,0,1,1.43.45v-.31Zm8.74-.13a1.74,1.74,0,0,0-1.49.68v-.55H22.58v4.89H24V12.9a1,1,0,0,1,1.09-1.11c.64,0,1,.38,1,1.1v2.58h1.45V12.36a1.93,1.93,0,0,0-2.07-1.91Zm-14.85,5h1.52V8.4H10.67ZM4,15.47H5.61V8.4H4ZM9.63,8.4a5.67,5.67,0,0,1-1.65,4l2.22,3.06h-2L5.8,12.15l.62-.48A4,4,0,0,0,8.05,8.4Z" fill="#0a0b09"/></g></svg>